# xmcd
#
# Track frame offsets: 
#        150
#        11943
#        22875
#        35199
#        46140
#        57739
#        70397
#        83714
#        96999
#        109232
#        121938
#        134824
#        144462
#        156622
#        167993
#        179833
#        191709
#        207547
#        218888
#        231882
#
# Disc length: 3285 seconds
#
# Revision: 0
# Processed by: cddbd v1.5.2PL0 Copyright (c) Steve Scherf et al.
# Submitted via: ExactAudioCopy v0.99pb5
#
DISCID=430cd314
DTITLE=Otis Redding  - 100 Hits Legends - 5 CD Boxset - CD 1
DYEAR=1900
DGENRE=
TTITLE0=These Arms Of Mine
TTITLE1=Pain In My Heart
TTITLE2=Mr. Pitful
TTITLE3=That's How Strong My Love Is
TTITLE4=Security
TTITLE5=I Cant Turn You Loose
TTITLE6=My Girl
TTITLE7=I've Been Loving You Too Long
TTITLE8=That's What My Heart Needs
TTITLE9=Come To Me
TTITLE10=I Need Your Lovin'
TTITLE11=Louie Louie
TTITLE12=Chained And Bound
TTITLE13=Licille
TTITLE14=The Dog
TTITLE15=Ole Man Trouble
TTITLE16=Just One More Day
TTITLE17=Something Is Worrying Me
TTITLE18=Stand By Me
TTITLE19=You Send Me
EXTD=
EXTT0=
EXTT1=
EXTT2=
EXTT3=
EXTT4=
EXTT5=
EXTT6=
EXTT7=
EXTT8=
EXTT9=
EXTT10=
EXTT11=
EXTT12=
EXTT13=
EXTT14=
EXTT15=
EXTT16=
EXTT17=
EXTT18=
EXTT19=
PLAYORDER=
